<svg width="63" height="63" viewBox="0 0 63 63" fill="none" xmlns="http://www.w3.org/2000/svg">
<circle cx="31.5" cy="31.5" r="31.5" fill="white"/>
<path fill-rule="evenodd" clip-rule="evenodd" d="M16.031 19.5939C15.7047 17.1502 18.0171 15.2758 20.1272 16.2735L46.2493 28.6242C48.5836 29.7279 48.5836 33.2721 46.2493 34.3758L20.1272 46.7265C18.0171 47.7243 15.7047 45.8498 16.031 43.4061L17.0976 35.417C17.1989 34.6577 17.7198 34.0398 18.4152 33.8536L27.2137 31.5L18.4152 29.1464C17.7198 28.9603 17.1989 28.3423 17.0976 27.583L16.031 19.5939ZM45.0617 31.5L18.9397 19.1493L19.8945 26.3013L33.0572 29.8224C34.6893 30.2591 34.6893 32.741 33.0572 33.1777L19.8945 36.6988L18.9397 43.8507L45.0617 31.5Z" fill="#121113"/>
</svg>
