<svg width="41" height="41" viewBox="0 0 41 41" fill="none" xmlns="http://www.w3.org/2000/svg">
<path fill-rule="evenodd" clip-rule="evenodd" d="M20.4758 31.6445C26.6441 31.6445 31.6445 26.6441 31.6445 20.4759C31.6445 14.3076 26.6441 9.30725 20.4758 9.30725C14.3076 9.30725 9.30719 14.3076 9.30719 20.4759C9.30719 26.6441 14.3076 31.6445 20.4758 31.6445ZM20.4758 27.9217C24.5879 27.9217 27.9216 24.588 27.9216 20.4759C27.9216 16.3637 24.5879 13.0301 20.4758 13.0301C16.3637 13.0301 13.0301 16.3637 13.0301 20.4759C13.0301 24.588 16.3637 27.9217 20.4758 27.9217Z" fill="#434344"/>
<path d="M31.6445 7.44568C30.6164 7.44568 29.783 8.27908 29.783 9.30712C29.783 10.3352 30.6164 11.1686 31.6445 11.1686C32.6725 11.1686 33.5059 10.3352 33.5059 9.30712C33.5059 8.27908 32.6725 7.44568 31.6445 7.44568Z" fill="#434344"/>
<path fill-rule="evenodd" clip-rule="evenodd" d="M1.21731 6.09819C0 8.48729 0 11.6148 0 17.8698V23.0819C0 29.3369 0 32.4645 1.21731 34.8534C2.28808 36.955 3.99666 38.6636 6.09819 39.7343C8.48729 40.9517 11.6148 40.9517 17.8698 40.9517H23.0819C29.3369 40.9517 32.4645 40.9517 34.8534 39.7343C36.955 38.6636 38.6636 36.955 39.7343 34.8534C40.9517 32.4645 40.9517 29.3369 40.9517 23.0819V17.8698C40.9517 11.6148 40.9517 8.48729 39.7343 6.09819C38.6636 3.99666 36.955 2.28808 34.8534 1.21731C32.4645 0 29.3369 0 23.0819 0H17.8698C11.6148 0 8.48729 0 6.09819 1.21731C3.99666 2.28808 2.28808 3.99666 1.21731 6.09819ZM23.0819 3.72288H17.8698C14.6809 3.72288 12.5131 3.72578 10.8375 3.86268C9.20527 3.99603 8.3706 4.23774 7.78834 4.53441C6.38733 5.24828 5.24828 6.38733 4.53441 7.78834C4.23774 8.3706 3.99603 9.20527 3.86268 10.8375C3.72578 12.5131 3.72288 14.6809 3.72288 17.8698V23.0819C3.72288 26.2709 3.72578 28.4385 3.86268 30.1142C3.99603 31.7465 4.23774 32.5812 4.53441 33.1634C5.24828 34.5643 6.38733 35.7034 7.78834 36.4172C8.3706 36.7139 9.20527 36.9557 10.8375 37.089C12.5131 37.2258 14.6809 37.2288 17.8698 37.2288H23.0819C26.2709 37.2288 28.4385 37.2258 30.1142 37.089C31.7465 36.9557 32.5812 36.7139 33.1634 36.4172C34.5643 35.7034 35.7034 34.5643 36.4172 33.1634C36.7139 32.5812 36.9557 31.7465 37.089 30.1142C37.2258 28.4385 37.2288 26.2709 37.2288 23.0819V17.8698C37.2288 14.6809 37.2258 12.5131 37.089 10.8375C36.9557 9.20527 36.7139 8.3706 36.4172 7.78834C35.7034 6.38733 34.5643 5.24828 33.1634 4.53441C32.5812 4.23774 31.7465 3.99603 30.1142 3.86268C28.4385 3.72578 26.2709 3.72288 23.0819 3.72288Z" fill="#434344"/>
</svg>
