<svg width="33" height="42" viewBox="0 0 33 42" fill="none" xmlns="http://www.w3.org/2000/svg">
<path d="M6.33208 38.5205H27.0738C28.0615 38.5205 28.5554 39.0144 28.5554 40.0021C28.5554 40.9898 28.0615 41.4836 27.0738 41.4836H6.33208C5.34438 41.4836 4.85052 40.9898 4.85052 40.0021C4.85052 39.0144 5.34438 38.5205 6.33208 38.5205Z" fill="#434344"/>
<path d="M30.0369 16.2971C30.0369 12.7607 28.632 9.36915 26.1314 6.86854C23.6308 4.36794 20.2393 2.96311 16.7029 2.96311C13.1665 2.96311 9.77492 4.36794 7.27431 6.86854C4.7737 9.36915 3.36887 12.7607 3.36887 16.2971C3.36887 21.767 7.74538 28.8962 16.7029 37.4359C25.6603 28.8962 30.0369 21.767 30.0369 16.2971ZM16.7029 41.4835C5.83714 31.6075 0.405762 23.21 0.405762 16.2971C0.405762 11.9748 2.12277 7.82961 5.17907 4.77331C8.23537 1.71701 12.3806 0 16.7029 0C21.0251 0 25.1704 1.71701 28.2267 4.77331C31.283 7.82961 33 11.9748 33 16.2971C33 23.21 27.5686 31.6075 16.7029 41.4835Z" fill="#434344"/>
<path d="M16.7028 20.7417C17.8816 20.7417 19.0121 20.2734 19.8457 19.4399C20.6792 18.6064 21.1475 17.4759 21.1475 16.2971C21.1475 15.1183 20.6792 13.9877 19.8457 13.1542C19.0121 12.3207 17.8816 11.8524 16.7028 11.8524C15.524 11.8524 14.3935 12.3207 13.56 13.1542C12.7264 13.9877 12.2582 15.1183 12.2582 16.2971C12.2582 17.4759 12.7264 18.6064 13.56 19.4399C14.3935 20.2734 15.524 20.7417 16.7028 20.7417ZM16.7028 23.7048C14.7382 23.7048 12.854 22.9244 11.4647 21.5351C10.0755 20.1459 9.29504 18.2617 9.29504 16.2971C9.29504 14.3324 10.0755 12.4482 11.4647 11.059C12.854 9.66974 14.7382 8.88928 16.7028 8.88928C18.6675 8.88928 20.5517 9.66974 21.9409 11.059C23.3301 12.4482 24.1106 14.3324 24.1106 16.2971C24.1106 18.2617 23.3301 20.1459 21.9409 21.5351C20.5517 22.9244 18.6675 23.7048 16.7028 23.7048Z" fill="#434344"/>
</svg>
