<?xml version="1.0" standalone="no"?>
<!DOCTYPE svg PUBLIC "-//W3C//DTD SVG 20010904//EN"
 "http://www.w3.org/TR/2001/REC-SVG-20010904/DTD/svg10.dtd">
<svg version="1.0" xmlns="http://www.w3.org/2000/svg"
 width="601.000000pt" height="53.000000pt" viewBox="0 0 601.000000 53.000000"
 preserveAspectRatio="xMidYMid meet">
    <g transform="translate(0.000000,53.000000) scale(0.100000,-0.100000)"
fill="rgb(255, 255, 255, 0.8)" stroke="none">
        <path d="M35 508 c-2 -7 -11 -39 -19 -70 l-14 -58 89 0 89 0 0 -185 0 -185 28
7 c15 3 47 12 72 18 l45 11 3 167 2 167 90 0 90 0 0 70 0 70 -235 0 c-180 0
-237 -3 -240 -12z"/>
        <path d="M600 431 c0 -77 -2 -89 -18 -93 -13 -4 -22 -23 -31 -64 -8 -32 -16
-65 -18 -71 -4 -9 6 -13 31 -13 l36 0 0 -90 0 -90 220 0 220 0 0 75 0 75 -145
0 c-121 0 -145 2 -145 15 0 12 23 15 127 17 l127 3 12 40 c6 22 15 55 18 73
l8 32 -146 0 c-139 0 -146 1 -146 20 0 19 7 20 145 20 l145 0 0 70 0 70 -220
0 -220 0 0 -89z"/>
        <path d="M1125 508 c-2 -7 -11 -39 -19 -70 l-14 -58 34 0 34 0 0 -185 0 -185
220 0 220 0 0 126 0 127 -32 -7 c-100 -20 -108 -25 -108 -61 l0 -35 -75 0 -75
0 0 110 0 111 73 -3 72 -3 3 -34 c4 -37 6 -37 104 -10 l38 10 0 89 0 90 -235
0 c-180 0 -237 -3 -240 -12z"/>
        <path d="M1720 431 c0 -77 -2 -89 -18 -93 -13 -4 -22 -23 -31 -64 -8 -32 -16
-65 -18 -71 -4 -9 6 -13 31 -13 l36 0 0 -90 0 -90 28 7 c15 3 47 12 72 18 l45
11 3 72 3 72 74 0 75 0 0 -89 0 -89 68 17 67 17 3 237 2 237 -70 0 -70 0 0
-90 0 -90 -75 0 -75 0 0 90 0 90 -75 0 -75 0 0 -89z"/>
        <path d="M2245 508 c-2 -7 -11 -39 -19 -70 l-14 -58 34 0 34 0 0 -185 0 -185
28 7 c15 3 47 12 72 18 l45 11 3 168 2 167 73 -3 72 -3 3 -181 2 -182 68 17
67 17 3 237 2 237 -235 0 c-180 0 -237 -3 -240 -12z"/>
        <path d="M2790 265 l0 -255 215 0 215 0 0 255 0 255 -215 0 -215 0 0 -255z
m290 5 l0 -110 -75 0 -75 0 0 103 c0 57 3 107 7 110 3 4 37 7 75 7 l68 0 0
-110z"/>
        <path d="M3315 508 c-2 -7 -11 -39 -19 -70 l-14 -58 34 0 34 0 0 -185 0 -185
220 0 220 0 0 126 0 127 -32 -7 c-100 -20 -108 -25 -108 -61 l0 -35 -75 0 -75
0 0 110 0 111 73 -3 72 -3 3 -34 c4 -37 6 -37 104 -10 l38 10 0 89 0 90 -235
0 c-180 0 -237 -3 -240 -12z"/>
        <path d="M3875 508 c-2 -7 -11 -39 -19 -70 l-14 -58 34 0 34 0 0 -185 0 -185
28 7 c15 3 47 12 72 18 l45 11 5 165 5 164 70 0 c58 0 70 -3 73 -17 3 -15 -4
-18 -36 -18 -39 0 -39 0 -51 -52 -6 -29 -14 -63 -17 -75 -6 -21 -3 -23 36 -23
42 0 43 0 25 -20 -17 -19 -16 -21 35 -90 28 -38 55 -70 59 -70 3 0 26 25 50
55 l43 56 -27 34 -26 35 25 0 26 0 0 165 0 165 -235 0 c-180 0 -237 -3 -240
-12z"/>
        <path d="M4470 431 c0 -77 -2 -89 -18 -93 -13 -4 -22 -23 -31 -64 -8 -32 -16
-65 -18 -71 -4 -9 6 -13 31 -13 l36 0 0 -90 0 -90 28 7 c15 3 47 12 72 18 l45
11 3 72 3 72 74 0 75 0 0 -89 0 -89 68 17 67 17 3 237 2 237 -220 0 -220 0 0
-89z m298 -73 c3 -16 -6 -18 -72 -18 -70 0 -76 2 -76 20 0 19 5 21 72 18 60
-2 73 -6 76 -20z"/>
        <path d="M5005 508 c-2 -7 -11 -39 -19 -70 l-14 -58 89 0 89 0 0 -185 0 -185
28 7 c15 3 47 12 72 18 l45 11 3 167 2 167 90 0 90 0 0 70 0 70 -235 0 c-180
0 -237 -3 -240 -12z"/>
        <path d="M5560 431 c0 -77 -2 -89 -18 -93 -13 -4 -22 -23 -31 -64 -8 -32 -16
-65 -18 -71 -4 -10 36 -13 181 -13 157 0 186 -2 186 -15 0 -12 -25 -15 -147
-17 l-148 -3 -3 -72 -3 -73 221 0 220 0 0 165 0 165 -145 0 c-138 0 -145 1
-145 20 0 19 7 20 145 20 l145 0 0 70 0 70 -220 0 -220 0 0 -89z"/>
    </g>
</svg>