<svg width="41" height="41" viewBox="0 0 41 41" fill="none" xmlns="http://www.w3.org/2000/svg">
<path d="M29.7695 24.544C29.2508 24.2983 26.7665 23.0698 26.3023 22.8787C25.8382 22.6876 25.5106 22.633 25.1557 23.1517C24.8008 23.6704 23.8453 24.7897 23.545 25.1446C23.2447 25.4995 22.9717 25.5268 22.4529 25.1446C20.9631 24.5467 19.5871 23.6971 18.3851 22.633C17.2971 21.6085 16.3759 20.4202 15.6551 19.1112C15.3548 18.6198 15.6551 18.3467 15.8735 18.0737C16.0919 17.8007 16.3649 17.5004 16.6379 17.2001C16.8376 16.9404 17.0027 16.6559 17.1293 16.3538C17.197 16.2133 17.2322 16.0593 17.2322 15.9033C17.2322 15.7474 17.197 15.5934 17.1293 15.4529C17.1293 15.2072 15.9827 12.7228 15.5459 11.7127C15.1091 10.7026 14.7269 10.8391 14.4266 10.8391H13.3345C12.8143 10.8593 12.3234 11.0852 11.9695 11.467C11.3982 12.0121 10.9458 12.6693 10.6404 13.3975C10.335 14.1257 10.1834 14.9091 10.195 15.6986C10.3346 17.6369 11.0473 19.4899 12.2425 21.0222C14.4358 24.2804 17.4364 26.9141 20.9514 28.6664C22.1526 29.1851 23.0809 29.4854 23.818 29.7311C24.8531 30.044 25.9472 30.1094 27.0122 29.9222C27.7195 29.7787 28.3898 29.4914 28.9816 29.0782C29.5733 28.6649 30.0738 28.1345 30.452 27.5198C30.7668 26.7607 30.8706 25.9306 30.7523 25.1173C30.6158 24.9262 30.2882 24.7897 29.7695 24.544Z" fill="#434344"/>
<path d="M34.8747 5.95224C32.9867 4.04634 30.7361 2.53781 28.2557 1.51565C25.7753 0.493482 23.1153 -0.0216296 20.4327 0.000695832C16.8789 0.0192928 13.3923 0.969957 10.3209 2.75774C7.24953 4.54552 4.70098 7.10785 2.92978 10.1888C1.15857 13.2698 0.226714 16.7615 0.22727 20.3153C0.227827 23.8691 1.16078 27.3605 2.93295 30.4409L0.202881 40.9517L10.9593 38.2216C13.933 39.8398 17.2657 40.6846 20.6511 40.6787H20.4327C24.4675 40.705 28.4187 39.529 31.7825 37.3006C35.1462 35.0723 37.7701 31.8926 39.3195 28.167C40.8689 24.4415 41.2736 20.3389 40.482 16.3824C39.6903 12.4259 37.7383 8.79485 34.8747 5.95224ZM20.4327 37.1842C17.4038 37.1866 14.4313 36.3656 11.833 34.809L11.2323 34.4541L4.84399 36.1195L6.53663 29.8949L6.15443 29.267C3.97407 25.7557 3.15848 21.5662 3.86239 17.4934C4.56631 13.4206 6.74075 9.74781 9.97315 7.17199C13.2056 4.59617 17.271 3.29648 21.3982 3.51953C25.5254 3.74257 29.4271 5.47282 32.3631 8.382C33.937 9.9433 35.1846 11.8022 36.0329 13.8505C36.8813 15.8988 37.3135 18.0954 37.3045 20.3124C37.2973 24.7849 35.5174 29.0721 32.3549 32.2346C29.1924 35.3971 24.9051 37.177 20.4327 37.1842Z" fill="#434344"/>
</svg>
