<svg width="63" height="46" viewBox="0 0 63 46" fill="none" xmlns="http://www.w3.org/2000/svg">
<path fill-rule="evenodd" clip-rule="evenodd" d="M14.9298 0.00832224H48.0702C56.015 -0.25931 62.6879 5.96087 62.9983 13.9335C62.9994 13.9622 63 13.9909 63 14.0196V31.5549C63 31.5836 62.9994 31.6123 62.9983 31.6409C62.6879 39.6138 56.015 45.8338 48.0702 45.5661H14.9298C6.9851 45.8338 0.312068 39.6138 0.00167372 31.6409C0.000558024 31.6122 0 31.5836 0 31.5549V14.0196C0 13.9909 0.000558024 13.9622 0.0016739 13.9336C0.312069 5.96085 6.98509 -0.25931 14.9298 0.00832224ZM4.39535 14.0647V31.5098C4.63295 37.0484 9.2834 41.3607 14.8115 41.1588C14.8381 41.1578 14.8648 41.1573 14.8914 41.1573H48.1086C48.1352 41.1573 48.1619 41.1578 48.1885 41.1588C53.7166 41.3607 58.367 37.0484 58.6047 31.5098V14.0646C58.367 8.52622 53.7166 4.21383 48.1885 4.41569C48.1619 4.41666 48.1352 4.41715 48.1086 4.41715H14.8914C14.8648 4.41715 14.8381 4.41666 14.8115 4.41569C9.28342 4.21383 4.63295 8.52627 4.39535 14.0647Z" fill="#434344"/>
<path fill-rule="evenodd" clip-rule="evenodd" d="M28.4585 16.4844V29.0901C28.4883 29.1096 28.5321 29.1336 28.5932 29.1567C28.882 29.2659 29.1992 29.2317 29.4061 29.1065L38.3748 22.5027L29.43 16.4828C29.43 16.4828 29.43 16.4828 29.43 16.4828C29.2278 16.3468 28.8969 16.3035 28.5933 16.4182C28.5325 16.4411 28.4886 16.465 28.4585 16.4844ZM27.0497 12.4105C28.4906 11.8662 30.3367 11.9072 31.864 12.935L40.9406 19.0437C42.1521 19.7791 42.8936 21.0866 42.8936 22.4982C42.8936 23.8916 42.1713 25.1839 40.9867 25.9243L31.9389 32.5863C31.9139 32.6048 31.8884 32.6227 31.8626 32.64C30.336 33.6657 28.4907 33.7096 27.0476 33.1635C25.6224 32.6243 24.1277 31.285 24.1277 29.2181V16.3503C24.1277 14.2825 25.6294 12.9472 27.0497 12.4105Z" fill="#434344"/>
</svg>
